# xmcd
#
# Track frame offsets: 
#        150
#        10822
#        21182
#        34415
#        45065
#        57415
#        67727
#        77930
#        87792
#        99015
#        110610
#        121805
#        131887
#        141765
#        153812
#        166160
#        178847
#        191872
#        202257
#        211602
#        222890
#        233785
#        242642
#        253270
#        265920
#        277255
#
# Disc length: 3837 seconds
#
# Revision: 2
# Processed by: cddbd v1.4PL0 Copyright (c) Steve Scherf et al.
# Submitted via: ExactAudioCopy v0.90b3
#
DISCID=6f0efb1a
DTITLE=George Jones - Cup Of Loneliness (The Classic Mercury Years) Li
DTITLE=mited Edition - Disc 1
DYEAR=1900
DGENRE=Country
TTITLE0=No Money In This Deal
TTITLE1=Why Baby Why
TTITLE2=Seasons Of My Heart
TTITLE3=I'm Ragged But I'm Right
TTITLE4=Just One More
TTITLE5=Uh, Uh, No
TTITLE6=Don't Stop The Music
TTITLE7=Too Much Water
TTITLE8=Flame In My Heart
TTITLE9=Hearts In My Dreams
TTITLE10=Tall Tall Trees
TTITLE11=No Use Crying
TTITLE12=Frozen Heart
TTITLE13=Cup Of Loneliness
TTITLE14=Take The Devil Out Of Me
TTITLE15=You Never Thought
TTITLE16=Color Of The Blues
TTITLE17=A New Baby For Christmas
TTITLE18=Maybe Little Baby
TTITLE19=I'm Gonna Burn Your Playhouse Down
TTITLE20=Will The Circle Be Unbroken
TTITLE21=If I Don't Love Ypu (Grits Ain't  Groceries)
TTITLE22=Treasure Of Love
TTITLE23=White Lightning
TTITLE24=Mr. Fool
TTITLE25=Who Shot Sam
EXTD=
EXTT0=
EXTT1=
EXTT2=
EXTT3=
EXTT4=
EXTT5=
EXTT6=
EXTT7=
EXTT8=
EXTT9=
EXTT10=
EXTT11=
EXTT12=
EXTT13=
EXTT14=
EXTT15=
EXTT16=
EXTT17=
EXTT18=
EXTT19=
EXTT20=
EXTT21=
EXTT22=
EXTT23=
EXTT24=
EXTT25=
PLAYORDER=
